<svg width="128" height="128" viewBox="0 0 128 128" fill="none" xmlns="http://www.w3.org/2000/svg">
<circle cx="64" cy="64" r="13" stroke="#2B2730" stroke-width="4"/>
<circle cx="64" cy="64" r="58" stroke="#2B2730" stroke-width="4"/>
<path d="M108.669 57.2552C112.816 60.8732 112.816 67.1268 108.669 70.7448C102.77 75.8903 94.664 82.5069 86.4208 87.8258C82.2994 90.4851 78.1818 92.795 74.3177 94.4346C70.4319 96.0835 66.9284 97 64 97C61.0716 97 57.5681 96.0835 53.6823 94.4346C49.8182 92.795 45.7006 90.4851 41.5792 87.8258C33.336 82.5069 25.2303 75.8903 19.3315 70.7448C15.1838 67.1268 15.1838 60.8732 19.3315 57.2552C25.2303 52.1097 33.336 45.4931 41.5792 40.1742C45.7006 37.5149 49.8182 35.205 53.6823 33.5654C57.5681 31.9165 61.0716 31 64 31C66.9284 31 70.4319 31.9165 74.3177 33.5654C78.1818 35.205 82.2994 37.5149 86.4208 40.1742C94.664 45.4931 102.77 52.1097 108.669 57.2552Z" stroke="#2B2730" stroke-width="4"/>
</svg>
