<svg width="204" height="204" viewBox="0 0 204 204" fill="none" xmlns="http://www.w3.org/2000/svg">
<rect x="20" y="20" width="164" height="164" rx="82" fill="#2B2730"/>
<path d="M82.5628 78.0255V71.7672H93.4656V100.5H86.4595V78.0255H82.5628ZM101.888 100.815C100.707 100.815 99.736 100.474 98.975 99.7916C98.2403 99.0831 97.873 98.2172 97.873 97.1938C97.873 96.1442 98.2403 95.2652 98.975 94.5567C99.736 93.8482 100.707 93.494 101.888 93.494C103.042 93.494 103.987 93.8482 104.722 94.5567C105.483 95.2652 105.863 96.1442 105.863 97.1938C105.863 98.2172 105.483 99.0831 104.722 99.7916C103.987 100.474 103.042 100.815 101.888 100.815ZM101.888 84.7954C100.707 84.7954 99.736 84.4543 98.975 83.772C98.2403 83.0636 97.873 82.1976 97.873 81.1743C97.873 80.1247 98.2403 79.2456 98.975 78.5372C99.736 77.8287 100.707 77.4744 101.888 77.4744C103.042 77.4744 103.987 77.8287 104.722 78.5372C105.483 79.2456 105.863 80.1247 105.863 81.1743C105.863 82.1976 105.483 83.0636 104.722 83.772C103.987 84.4543 103.042 84.7954 101.888 84.7954ZM108.547 78.0255V71.7672H119.449V100.5H112.443V78.0255H108.547Z" fill="white"/>
<path d="M53.66 135.351L56.0412 127.519H59.623L55.7264 138.5H51.5739L47.6772 127.519H51.2787L53.66 135.351ZM62.732 126.377C62.1416 126.377 61.6561 126.207 61.2757 125.865C60.9083 125.511 60.7246 125.078 60.7246 124.567C60.7246 124.042 60.9083 123.609 61.2757 123.268C61.6561 122.913 62.1416 122.736 62.732 122.736C63.3093 122.736 63.7816 122.913 64.1489 123.268C64.5294 123.609 64.7197 124.042 64.7197 124.567C64.7197 125.078 64.5294 125.511 64.1489 125.865C63.7816 126.207 63.3093 126.377 62.732 126.377ZM64.4048 127.519V138.5H61.0395V127.519H64.4048ZM66.1745 132.99C66.1745 131.861 66.3844 130.871 66.8042 130.018C67.2372 129.165 67.821 128.509 68.5557 128.05C69.2905 127.591 70.1105 127.361 71.0157 127.361C71.7373 127.361 72.3933 127.512 72.9837 127.814C73.5873 128.116 74.0596 128.522 74.4007 129.034V123.937H77.766V138.5H74.4007V136.926C74.0858 137.45 73.6332 137.87 73.0428 138.185C72.4655 138.5 71.7898 138.657 71.0157 138.657C70.1105 138.657 69.2905 138.428 68.5557 137.969C67.821 137.496 67.2372 136.834 66.8042 135.981C66.3844 135.115 66.1745 134.118 66.1745 132.99ZM74.4007 133.009C74.4007 132.17 74.1645 131.507 73.6922 131.022C73.233 130.536 72.6689 130.293 71.9997 130.293C71.3306 130.293 70.7599 130.536 70.2876 131.022C69.8284 131.494 69.5988 132.15 69.5988 132.99C69.5988 133.829 69.8284 134.498 70.2876 134.997C70.7599 135.482 71.3306 135.725 71.9997 135.725C72.6689 135.725 73.233 135.482 73.6922 134.997C74.1645 134.512 74.4007 133.849 74.4007 133.009ZM90.5523 132.832C90.5523 133.147 90.5326 133.475 90.4933 133.816H82.8771C82.9296 134.498 83.1461 135.023 83.5265 135.391C83.9201 135.745 84.399 135.922 84.9632 135.922C85.8029 135.922 86.3867 135.568 86.7147 134.859H90.2965C90.1128 135.581 89.7782 136.23 89.2928 136.808C88.8205 137.385 88.2235 137.837 87.5019 138.165C86.7803 138.493 85.9734 138.657 85.0813 138.657C84.0054 138.657 83.0477 138.428 82.208 137.969C81.3683 137.509 80.7123 136.853 80.24 136.001C79.7677 135.148 79.5315 134.151 79.5315 133.009C79.5315 131.868 79.7611 130.871 80.2203 130.018C80.6926 129.165 81.3486 128.509 82.1883 128.05C83.028 127.591 83.9923 127.361 85.0813 127.361C86.144 127.361 87.0886 127.584 87.9152 128.03C88.7417 128.476 89.3846 129.113 89.8438 129.939C90.3161 130.766 90.5523 131.73 90.5523 132.832ZM87.1083 131.947C87.1083 131.369 86.9115 130.91 86.5179 130.569C86.1243 130.228 85.6323 130.057 85.0419 130.057C84.4777 130.057 83.9989 130.221 83.6053 130.549C83.2248 130.877 82.9886 131.343 82.8968 131.947H87.1083ZM97.3264 138.657C96.2505 138.657 95.2796 138.428 94.4137 137.969C93.5609 137.509 92.8852 136.853 92.3867 136.001C91.9012 135.148 91.6585 134.151 91.6585 133.009C91.6585 131.881 91.9078 130.89 92.4064 130.038C92.9049 129.172 93.5872 128.509 94.4531 128.05C95.319 127.591 96.2899 127.361 97.3657 127.361C98.4416 127.361 99.4125 127.591 100.278 128.05C101.144 128.509 101.827 129.172 102.325 130.038C102.824 130.89 103.073 131.881 103.073 133.009C103.073 134.138 102.817 135.135 102.305 136.001C101.807 136.853 101.118 137.509 100.239 137.969C99.3731 138.428 98.4022 138.657 97.3264 138.657ZM97.3264 135.745C97.9693 135.745 98.5137 135.509 98.9598 135.036C99.419 134.564 99.6486 133.888 99.6486 133.009C99.6486 132.13 99.4256 131.455 98.9795 130.982C98.5465 130.51 98.0086 130.274 97.3657 130.274C96.7097 130.274 96.1652 130.51 95.7323 130.982C95.2993 131.441 95.0828 132.117 95.0828 133.009C95.0828 133.888 95.2928 134.564 95.7126 135.036C96.1456 135.509 96.6835 135.745 97.3264 135.745ZM108.36 133.009C108.36 131.868 108.589 130.871 109.048 130.018C109.521 129.165 110.17 128.509 110.997 128.05C111.836 127.591 112.794 127.361 113.87 127.361C115.248 127.361 116.396 127.722 117.314 128.444C118.246 129.165 118.856 130.182 119.144 131.494H115.563C115.261 130.654 114.677 130.234 113.811 130.234C113.194 130.234 112.702 130.477 112.335 130.963C111.968 131.435 111.784 132.117 111.784 133.009C111.784 133.901 111.968 134.59 112.335 135.076C112.702 135.548 113.194 135.784 113.811 135.784C114.677 135.784 115.261 135.364 115.563 134.525H119.144C118.856 135.81 118.246 136.821 117.314 137.555C116.383 138.29 115.235 138.657 113.87 138.657C112.794 138.657 111.836 138.428 110.997 137.969C110.17 137.509 109.521 136.853 109.048 136.001C108.589 135.148 108.36 134.151 108.36 133.009ZM120.275 132.99C120.275 131.861 120.485 130.871 120.905 130.018C121.338 129.165 121.922 128.509 122.657 128.05C123.391 127.591 124.211 127.361 125.117 127.361C125.891 127.361 126.566 127.519 127.144 127.833C127.734 128.148 128.187 128.562 128.502 129.073V127.519H131.867V138.5H128.502V136.945C128.174 137.457 127.714 137.87 127.124 138.185C126.547 138.5 125.871 138.657 125.097 138.657C124.205 138.657 123.391 138.428 122.657 137.969C121.922 137.496 121.338 136.834 120.905 135.981C120.485 135.115 120.275 134.118 120.275 132.99ZM128.502 133.009C128.502 132.17 128.265 131.507 127.793 131.022C127.334 130.536 126.77 130.293 126.101 130.293C125.431 130.293 124.861 130.536 124.388 131.022C123.929 131.494 123.7 132.15 123.7 132.99C123.7 133.829 123.929 134.498 124.388 134.997C124.861 135.482 125.431 135.725 126.101 135.725C126.77 135.725 127.334 135.482 127.793 134.997C128.265 134.512 128.502 133.849 128.502 133.009ZM137.667 123.937V138.5H134.301V123.937H137.667ZM143.471 123.937V138.5H140.105V123.937H143.471ZM150.377 138.657C149.419 138.657 148.566 138.493 147.819 138.165C147.071 137.837 146.48 137.391 146.047 136.827C145.614 136.25 145.372 135.607 145.319 134.899H148.645C148.684 135.279 148.862 135.587 149.176 135.824C149.491 136.06 149.878 136.178 150.338 136.178C150.757 136.178 151.079 136.099 151.302 135.942C151.538 135.771 151.656 135.555 151.656 135.292C151.656 134.977 151.492 134.748 151.164 134.603C150.836 134.446 150.305 134.275 149.57 134.092C148.783 133.908 148.127 133.718 147.602 133.521C147.077 133.311 146.625 132.99 146.244 132.557C145.864 132.111 145.673 131.514 145.673 130.766C145.673 130.136 145.844 129.565 146.185 129.054C146.539 128.529 147.051 128.116 147.72 127.814C148.402 127.512 149.209 127.361 150.141 127.361C151.518 127.361 152.601 127.702 153.388 128.385C154.188 129.067 154.647 129.972 154.766 131.1H151.656C151.604 130.72 151.433 130.418 151.144 130.195C150.869 129.972 150.502 129.861 150.042 129.861C149.649 129.861 149.347 129.939 149.137 130.097C148.927 130.241 148.822 130.444 148.822 130.707C148.822 131.022 148.986 131.258 149.314 131.415C149.655 131.573 150.18 131.73 150.889 131.888C151.702 132.097 152.365 132.307 152.876 132.517C153.388 132.714 153.834 133.042 154.215 133.501C154.608 133.947 154.811 134.551 154.825 135.312C154.825 135.955 154.641 136.532 154.274 137.044C153.919 137.542 153.401 137.936 152.719 138.225C152.05 138.513 151.269 138.657 150.377 138.657Z" fill="white"/>
<circle cx="102" cy="102" r="101" stroke="#2B2730" stroke-width="2"/>
</svg>
